#!OML:ASF F:\VICON\USERDATA\INSTALL\rory3\rory3.ASF
:FULLY-SPECIFIED
:DEGREES
37
root 0.08589531815892348 18.018759198964496 10.403335427126239 -1.990784278717672 -3.743775592143508 -6.623206449554244
lfemur -31.34660145510108 2.1986787249094855 -10.166254854592296
ltibia 43.64210941569655
lfoot -2.897129394686982 -6.047291211719829
ltoes -3.539113922040957
rfemur 2.177054067315181 5.218360772377196 34.42813840311674
rtibia 34.00011740445971
rfoot -12.970116920303791 -4.309209691886687
rtoes 0.17046897766582791
lowerback 9.792903220531045 1.6357943446589986 6.160746588675465
upperback 0.0620612220225554 2.9123760637599982 1.8471711947896425
thorax -5.224463701066655 1.3119938638311313 -1.9785407438536426
lowerneck -16.293634993561 -2.764944270150078 -2.41622831596764
upperneck 21.873942950637502 -3.559090845408181 -0.06424563611769407
head 9.636775268262728 -1.821559417927729 -0.0655653227566503
lclavicle -4.532836069444037e-16 -7.764197132188434e-16
lhumerus -35.995026100954284 7.823982661620004 80.55677996408751
lradius 20.42963337654945
lwrist 3.908549162030746
lhand -28.076648291524666 20.897835817379672
lfingers 7.12502
lthumb -1.270568161457161 51.50062085285642
rclavicle -4.541508682880772e-16 -7.770900187940636e-16
rhumerus -21.10542177425219 -7.943536778747468 -83.06135039198124
rradius 29.561210380519594
rwrist 1.5823662488981087
rhand -18.204063880977202 22.472988539189288
rfingers 7.12502
rthumb 8.118856473368728 -7.260270187966055
38
root 0.11092010486159393 17.980675316870897 10.600450487123705 -1.4044993895387683 -4.130102863497177 -6.8880919818847595
lfemur -30.4869341659763 -1.8125092398889064 -8.525934929587386
ltibia 30.99544008306834
lfoot -3.3314816463375605 -4.8180787993623815
ltoes -3.1544688632081455
rfemur 4.9328804434171225 5.4680076688060275 34.90567816429105
rtibia 32.781603682270884
rfoot -11.841915402110464 -4.452269896764198
rtoes 1.0385188864486223
lowerback 9.461366293703199 1.7955802744262814 6.557175428825771
upperback 0.020841986201879728 3.2386950023361365 1.864474238633416
thorax -5.187624468500219 1.4107716440359281 -2.2627498770028325
lowerneck -16.383304924967334 -2.7432092242334334 -2.46530513323183
upperneck 21.68063238232635 -3.5184921069178534 0.09804956706945878
head 9.597218458630678 -1.7610918620138425 -0.024040993376690703
lclavicle -4.532838676231655e-16 -7.764199146972428e-16
lhumerus -36.59820513019907 9.71810672974446 79.94047173145137
lradius 18.92829645517431
lwrist 3.0514669296761516
lhand -27.943593070794453 21.75247990998139
lfingers 7.12502
lthumb -0.959932620613479 52.74003374595806
rclavicle -4.541514102395435e-16 -7.770904376679036e-16
rhumerus -19.572064528911596 -7.030739675356918 -83.25050473481235
rradius 30.288188264543734
rwrist 1.2344070702410623
rhand -18.234333809124287 22.56631553716527
rfingers 7.12502
rthumb 8.026873009138372 -7.27790257453686
39
root 0.14960377782615852 17.939470896583362 11.575237592717567 -0.7676056267436235 -4.445971053174526 -7.010739737435882
lfemur -28.475826092719252 -7.026545181511578 -6.493715052697507
ltibia 18.510619865007993
lfoot -2.790099354712531 -3.3555050443297967
ltoes -2.8275080831023724
rfemur 8.138672053374478 5.5143739732882135 35.28324065294724
rtibia 32.04080642524673
rfoot -10.470017098532729 -4.06295861101544
rtoes 2.6379325302067
lowerback 9.097368758476295 1.9531619175373853 6.912801554338417
upperback -0.036384942133604284 3.4011745569398473 1.8662698858493756
thorax -5.115267888163754 1.5092431979021268 -2.404430926329871
lowerneck -16.386391440168023 -2.6747709639243795 -2.417027175794635
upperneck 21.506874109357067 -3.5689530905859357 0.1568713788891351
head 9.546499510918768 -1.7353993264038847 -0.04219333033353699
lclavicle -4.532845725138348e-16 -7.764204595066581e-16
lhumerus -37.23344346589966 11.429135313949022 79.16673161700344
lradius 17.654870476690284
lwrist 2.114323166792506
lhand -27.87756147332484 21.756767479940425
lfingers 7.12502
lthumb -1.0149976325006698 52.52105330228688
rclavicle -4.541516762957371e-16 -7.770906433025156e-16
rhumerus -18.403568143100728 -6.741706449403541 -83.31881940759914
rradius 30.63923971668798
rwrist 1.0037064091810568
rhand -18.285050232780623 22.71041622611985
rfingers 7.12502
rthumb 7.973262605391153 -7.204147018237064
40
root 0.21151088186154002 17.893244047315616 12.627800539304294 -0.3066226218049235 -4.674212205138376 -6.852598430588118
lfemur -26.955702898399174 -8.899504741953548 -6.480234382546763
ltibia 11.365813837794796
lfoot -2.9013492521536817 -2.673718381295863
ltoes -2.5533665483137233
rfemur 9.564858472150384 5.346495653585686 34.40229756542888
rtibia 33.17263923119037
rfoot -9.110122941399505 -3.1186172673840753
rtoes 4.403874608841954
lowerback 8.846312805060464 2.0732147879103873 6.865992839614582
upperback -0.06338442552704164 3.543388351587512 1.830894108343468
thorax -5.038485783003188 1.5719962353200168 -2.4321461617824776
lowerneck -16.39524852458503 -2.6575153417534505 -2.4160933298377136
upperneck 21.392799224379335 -3.6238126738771483 0.24825559887158172
head 9.500436177928407 -1.7128520506295848 -0.01680598737604104
lclavicle -4.532843822621615e-16 -7.764203124612972e-16
lhumerus -37.83971335831427 12.970218292941134 78.32756621258542
lradius 16.932524214938685
lwrist 1.1818015755317344
lhand -28.146117206464634 21.521730188074656
lfingers 7.12502
lthumb -1.1333268614194867 52.6320300010451
rclavicle -4.541517297473181e-16 -7.770906846151983e-16
rhumerus -17.55980570560328 -6.973994173244785 -83.30032260091258
rradius 30.68333123107592
rwrist 0.9801146670852114
rhand -18.392782681955776 22.65355514019376
rfingers 7.12502
rthumb 7.946655474328444 -7.138393375448632
41
root 0.2831553282459869 17.848940728595302 13.699044320281665 -0.2604975473479927 -4.753063518747372 -6.4175644848695965
lfemur -26.975484797898957 -5.261097812111124 -8.881031180191494
ltibia 12.278110184792695
lfoot -3.3213598647261406 -2.367955211156847
ltoes -2.1938115621822187
rfemur 11.03228003891413 5.5751861386996975 33.781658706706864
rtibia 36.05259055438454
rfoot -7.586406709731303 -2.1999976269203607
rtoes 5.355782042599223
lowerback 8.705661562686672 2.126278513150681 6.526395375846425
upperback -0.09145272511122975 3.594502400364501 1.7605013974367667
thorax -4.9801055279395285 1.616289584565505 -2.301374575504968
lowerneck -16.381099762492738 -2.646185467437832 -2.380000336173917
upperneck 21.3084101218741 -3.7525242304529813 0.30238522794936523
head 9.495847722216386 -1.73202807990658 -0.01108761934437491
lclavicle -4.532846865465592e-16 -7.764205476424565e-16
lhumerus -38.41632536334389 14.369651492966938 77.45894785672705
lradius 16.798318336350146
lwrist 0.7222717792819857
lhand -27.922477233478872 21.486123251446543
lfingers 7.12502
lthumb -0.9187636231276477 52.510071744475276
rclavicle -4.541517421011771e-16 -7.770906941634858e-16
rhumerus -17.341315881093063 -7.684291661335033 -83.21690291365368
rradius 30.583069545103946
rwrist 1.085657163537887
rhand -18.42826240903531 22.583889491440292
rfingers 7.12502
rthumb 7.950159347418423 -7.107241816860356
42
root 0.3479576510898702 17.816782442259473 14.151831183023091 -0.6728722632916055 -4.727735118442807 -5.8594865962592415
lfemur -27.528298766237533 -3.1735249784519084 -11.181389434206002
ltibia 18.5969135066462
lfoot -3.9194376410334133 -2.2487452575797633
ltoes -2.1196929593187415
rfemur 11.362958887700724 5.460830603412406 32.65270948659924
rtibia 39.8053122473561
rfoot -5.239283358597948 -1.2941029219695785
rtoes 5.665541692882306
lowerback 8.764877126751957 2.1445231221712966 5.981860623229517
upperback -0.09337431033973619 3.619924551692633 1.654294629212526
thorax -4.978085811699561 1.6279859597884334 -2.1047406701375397
lowerneck -16.28761141479738 -2.6434847268687016 -2.3197938776447424
upperneck 21.318162881819898 -3.857560608422639 0.43111480296406157
head 9.480986687137154 -1.755034704969513 0.024941994288831534
lclavicle -4.532846862298007e-16 -7.764205473976342e-16
lhumerus -39.02752392340499 15.621060063460448 76.59026260851088
lradius 17.255699732679105
lwrist 0.4854507128125052
lhand -27.76963266466636 21.814156738216397
lfingers 7.12502
lthumb -0.7514358766162907 52.8226603394364
rclavicle -4.541517423432959e-16 -7.770906943506192e-16
rhumerus -17.87063513853908 -8.931063071188273 -83.01629161780076
rradius 30.390606171751966
rwrist 1.462756299013709
rhand -18.370557953122933 22.56486940150892
rfingers 7.12502
rthumb 7.969279059603492 -7.166216974812229
43
root 0.4193119884899504 17.804578612434852 14.580163307766687 -1.3888214553844576 -4.570042658394943 -5.0101436761880445
lfemur -26.568747392603917 -2.7708038084768907 -13.32999082111969
ltibia 24.75237110930341
lfoot -5.163171322815044 -2.7769246786772124
ltoes -2.3508277443692847
rfemur 10.961323814114625 4.599445184672179 30.942369590372397
rtibia 44.290525823967705
rfoot -2.3259515074158363 -0.6098394015640496
rtoes 5.199965588019524
lowerback 8.908144313752974 2.1276601126899366 5.263295036259608
upperback -0.0813221544678613 3.5586059194885937 1.485750561468263
thorax -5.013186952005539 1.6024191754229529 -1.8677681987463537
lowerneck -16.21724219284701 -2.6762435999133434 -2.3098501063456234
upperneck 21.38797588759579 -3.948799484735719 0.5562283330760956
head 9.471187665981903 -1.7854899523599959 0.05756050349228667
lclavicle -4.5328468610397e-16 -7.764205473003797e-16
lhumerus -39.70580885276164 16.600687419759748 75.78696482435143
lradius 18.137975227590346
lwrist 0.5262038194813883
lhand -27.76049885029036 21.527605595044506
lfingers 7.12502
lthumb -0.6479996270312931 52.86616814183378
rclavicle -4.541517425194264e-16 -7.770906944867503e-16
rhumerus -19.009508942526047 -10.562249607594099 -82.59227734666607
rradius 30.145174982975274
rwrist 2.1205508826220614
rhand -18.338046684151546 22.55262852122458
rfingers 7.12502
rthumb 7.94070822525781 -7.270870816343938
44
root 0.4971058359198803 17.812595793229313 15.08776784271128 -2.2109388988284815 -4.436171344621506 -3.8690467735512746
lfemur -24.928949226166985 -1.6541963680566072 -15.545117026087443
ltibia 28.48232968998637
lfoot -5.281936275623098 -2.2266489547169845
ltoes -2.5097865396004564
rfemur 7.564079210331688 3.1862257456974517 28.541003568152576
rtibia 49.256564256041365
rfoot 0.5961769216929014 -0.6088799665232711
rtoes 4.999685179040966
lowerback 9.114017459464664 2.0795384034249076 4.2866924806312126
upperback -0.05799242100013423 3.4035537122149924 1.2592778792233834
thorax -5.080799208991987 1.549849524137108 -1.5989445781079585
lowerneck -16.159716250739503 -2.732012391549904 -2.3276135154908633
upperneck 21.48539162804624 -3.9994957558312865 0.6349211544395954
head 9.46553268266079 -1.8135163453834293 0.09446248528069576
lclavicle -4.532846858840449e-16 -7.764205471303998e-16
lhumerus -40.14851827708392 17.216696512094103 75.26472560702477
lradius 19.256051919861665
lwrist 1.1999967979812816
lhand -27.667314551371945 21.65642147505943
lfingers 7.12502
lthumb -0.6151011324944413 52.83827942618417
rclavicle -4.54151742735331e-16 -7.770906946536228e-16
rhumerus -20.55890085520948 -12.498576668098309 -82.0041309513762
rradius 29.886580972852425
rwrist 2.8302816533672215
rhand -18.36051839775248 22.536894114302495
rfingers 7.12502
rthumb 7.931102099863742 -7.227355460367571
